<svg width="23" height="23" viewBox="0 0 23 23" fill="none" xmlns="http://www.w3.org/2000/svg">
<path d="M15.9379 0.209961C20.2114 0.209961 22.8908 2.86985 22.8908 7.16285V9.74451L22.883 9.85995C22.8267 10.2752 22.4708 10.5953 22.04 10.5953H22.0303L21.8959 10.5845C21.7194 10.556 21.5552 10.4717 21.4286 10.3421C21.2703 10.1801 21.184 9.96114 21.1893 9.73473V7.16285C21.1893 3.7793 19.3215 1.91151 15.9379 1.91151H7.6062C4.21288 1.91151 2.35487 3.7793 2.35487 7.16285V15.5043C2.35487 18.8879 4.22266 20.7459 7.6062 20.7459H15.9379C19.3313 20.7459 21.1893 18.8781 21.1893 15.5043C21.1893 15.0345 21.5702 14.6536 22.04 14.6536C22.5099 14.6536 22.8908 15.0345 22.8908 15.5043C22.8908 19.7876 20.2309 22.4475 15.9477 22.4475H7.6062C3.31321 22.4475 0.65332 19.7876 0.65332 15.5043V7.16285C0.65332 2.86985 3.31321 0.209961 7.6062 0.209961H15.9379ZM7.0488 8.61014C7.27449 8.61779 7.48787 8.71484 7.64195 8.87993C7.79603 9.04501 7.87815 9.26458 7.87024 9.49025V16.5996C7.85404 17.0695 7.46 17.4372 6.99013 17.421C6.52026 17.4048 6.15249 17.0108 6.16869 16.5409V9.4218L6.18385 9.28875C6.21796 9.11436 6.30675 8.954 6.43906 8.83197C6.60445 8.67945 6.82406 8.59955 7.0488 8.61014ZM11.8112 5.27549C12.2811 5.27549 12.662 5.6564 12.662 6.12627V16.5507C12.662 17.0206 12.2811 17.4015 11.8112 17.4015C11.3413 17.4015 10.9604 17.0206 10.9604 16.5507V6.12627C10.9604 5.6564 11.3413 5.27549 11.8112 5.27549ZM16.5247 12.3653C16.9945 12.3653 17.3754 12.7462 17.3754 13.2161V16.5409C17.3754 17.0108 16.9945 17.3917 16.5247 17.3917C16.0548 17.3917 15.6739 17.0108 15.6739 16.5409V13.2161C15.6739 12.7462 16.0548 12.3653 16.5247 12.3653Z" fill="white"/>
</svg>
