<svg width="18" height="16" viewBox="0 0 18 16" fill="none" xmlns="http://www.w3.org/2000/svg">
<path d="M16.4456 2.99861H2.21927C1.41904 2.99861 0.774414 2.35398 0.774414 1.55375C0.774414 0.753516 1.41904 0.108887 2.21927 0.108887H16.4456C17.2458 0.108887 17.8904 0.753516 17.8904 1.55375C17.8904 2.35398 17.2458 2.99861 16.4456 2.99861ZM17.8904 8.00004C17.8904 7.19981 17.2458 6.55518 16.4456 6.55518H2.21927C1.41904 6.55518 0.774414 7.19981 0.774414 8.00004C0.774414 8.80027 1.41904 9.4449 2.21927 9.4449H16.4456C17.2458 9.4449 17.8904 8.80027 17.8904 8.00004ZM17.8904 14.4463C17.8904 13.6461 17.2458 13.0015 16.4456 13.0015H2.21927C1.41904 13.0015 0.774414 13.6461 0.774414 14.4463C0.774414 15.2466 1.41904 15.8912 2.21927 15.8912H16.4456C17.2458 15.8912 17.8904 15.2466 17.8904 14.4463Z" fill="white"/>
</svg>
