<svg width="19" height="18" viewBox="0 0 19 18" fill="none" xmlns="http://www.w3.org/2000/svg">
<path d="M5.89063 18H3.89063C3.49681 17.9999 3.10688 17.9221 2.74324 17.7709C2.3796 17.6197 2.04941 17.3982 1.77163 17.119C1.49246 16.8412 1.27093 16.511 1.11974 16.1474C0.968551 15.7837 0.890689 15.3938 0.890625 15V13C0.890625 12.175 1.22763 11.425 1.77163 10.881C2.04941 10.6018 2.3796 10.3803 2.74324 10.2291C3.10688 10.0779 3.49681 10.0001 3.89063 9.99999H5.89063C6.28445 10.0001 6.67438 10.0779 7.03802 10.2291C7.40166 10.3803 7.73185 10.6018 8.00963 10.881C8.28879 11.1588 8.51033 11.489 8.66152 11.8526C8.81271 12.2162 8.89057 12.6062 8.89063 13V15C8.89057 15.3938 8.81271 15.7837 8.66152 16.1474C8.51033 16.511 8.28879 16.8412 8.00963 17.119C7.73185 17.3982 7.40166 17.6197 7.03802 17.7709C6.67438 17.9221 6.28445 17.9999 5.89063 18ZM15.8906 18H13.8906C13.4968 17.9999 13.1069 17.9221 12.7433 17.7709C12.3796 17.6197 12.0494 17.3982 11.7716 17.119C11.4925 16.8412 11.2709 16.511 11.1198 16.1474C10.9686 15.7837 10.8907 15.3938 10.8906 15V13C10.8906 12.175 11.2276 11.425 11.7716 10.881C12.0494 10.6018 12.3796 10.3803 12.7433 10.2291C13.1069 10.0779 13.4968 10.0001 13.8906 9.99999H15.8906C16.2845 10.0001 16.6744 10.0779 17.038 10.2291C17.4017 10.3803 17.7319 10.6018 18.0096 10.881C18.2888 11.1588 18.5103 11.489 18.6615 11.8526C18.8127 12.2162 18.8906 12.6062 18.8906 13V15C18.8906 15.3938 18.8127 15.7837 18.6615 16.1474C18.5103 16.511 18.2888 16.8412 18.0096 17.119C17.7319 17.3982 17.4017 17.6197 17.038 17.7709C16.6744 17.9221 16.2845 17.9999 15.8906 18ZM5.89063 7.99999H3.89063C3.49681 7.99993 3.10688 7.92206 2.74324 7.77087C2.3796 7.61969 2.04941 7.39815 1.77163 7.11899C1.49246 6.84121 1.27093 6.51102 1.11974 6.14737C0.968551 5.78373 0.890689 5.3938 0.890625 4.99999V2.99998C0.890625 2.17498 1.22763 1.42498 1.77163 0.880981C2.04941 0.60182 2.3796 0.380283 2.74324 0.229095C3.10688 0.0779076 3.49681 4.3869e-05 3.89063 -1.90735e-05H5.89063C6.28445 4.3869e-05 6.67438 0.0779076 7.03802 0.229095C7.40166 0.380283 7.73185 0.60182 8.00963 0.880981C8.28879 1.15876 8.51033 1.48895 8.66152 1.8526C8.81271 2.21624 8.89057 2.60616 8.89063 2.99998V4.99999C8.89057 5.3938 8.81271 5.78373 8.66152 6.14737C8.51033 6.51102 8.28879 6.84121 8.00963 7.11899C7.73185 7.39815 7.40166 7.61969 7.03802 7.77087C6.67438 7.92206 6.28445 7.99993 5.89063 7.99999ZM15.8906 7.99999H13.8906C13.4968 7.99993 13.1069 7.92206 12.7433 7.77087C12.3796 7.61969 12.0494 7.39815 11.7716 7.11899C11.4925 6.84121 11.2709 6.51102 11.1198 6.14737C10.9686 5.78373 10.8907 5.3938 10.8906 4.99999V2.99998C10.8906 2.17498 11.2276 1.42498 11.7716 0.880981C12.0494 0.60182 12.3796 0.380283 12.7433 0.229095C13.1069 0.0779076 13.4968 4.3869e-05 13.8906 -1.90735e-05H15.8906C16.2845 4.3869e-05 16.6744 0.0779076 17.038 0.229095C17.4017 0.380283 17.7319 0.60182 18.0096 0.880981C18.2888 1.15876 18.5103 1.48895 18.6615 1.8526C18.8127 2.21624 18.8906 2.60616 18.8906 2.99998V4.99999C18.8906 5.3938 18.8127 5.78373 18.6615 6.14737C18.5103 6.51102 18.2888 6.84121 18.0096 7.11899C17.7319 7.39815 17.4017 7.61969 17.038 7.77087C16.6744 7.92206 16.2845 7.99993 15.8906 7.99999Z" fill="white"/>
</svg>
