<svg width="19" height="20" viewBox="0 0 19 20" fill="none" xmlns="http://www.w3.org/2000/svg">
<path d="M12.4889 11.2871C11.8318 11.2871 11.121 11.9077 11.5774 12.9455C11.6046 13.0084 11.6417 13.0666 11.6872 13.1179C11.7868 13.2268 11.9075 13.3144 12.0418 13.3754C12.1762 13.4364 12.3216 13.4696 12.4691 13.473C12.6167 13.4763 12.7634 13.4497 12.9004 13.3949C13.0374 13.34 13.1619 13.258 13.2664 13.1537C13.4701 12.9467 13.5843 12.668 13.5843 12.3776C13.5843 12.0871 13.4701 11.8084 13.2664 11.6014C13.0576 11.4 12.7789 11.2873 12.4889 11.2871ZM7.49849 7.38538C7.6531 7.23287 7.75865 7.03767 7.80161 6.8248C7.84457 6.61192 7.82298 6.39106 7.73961 6.19053C7.65624 5.99 7.51489 5.81893 7.33368 5.69925C7.15246 5.57957 6.93963 5.51673 6.72247 5.51879C6.57996 5.51804 6.4387 5.54545 6.30681 5.59943C6.17491 5.65341 6.05497 5.7329 5.95387 5.83335C5.75001 6.04028 5.63574 6.3191 5.63574 6.60958C5.63574 6.90005 5.75001 7.17888 5.95387 7.3858C6.15888 7.59035 6.43667 7.70519 6.72627 7.70511C7.01586 7.70503 7.2936 7.59004 7.49849 7.38538Z" fill="white"/>
<path d="M8.37669 0.0837061C6.80248 0.290365 5.3079 0.898524 4.03664 1.84971C2.76539 2.8009 1.76021 4.06314 1.11774 5.51506C0.475278 6.96699 0.217131 8.55978 0.368121 10.1403C0.51911 11.7208 1.07416 13.2359 1.97991 14.54C2.21404 14.8946 2.31836 15.3193 2.27518 15.742L1.99241 18.5788C1.98491 18.6541 1.99626 18.7302 2.02544 18.8C2.05462 18.8699 2.10072 18.9314 2.15959 18.979C2.21846 19.0267 2.28825 19.0589 2.36267 19.0728C2.43709 19.0868 2.51381 19.082 2.58592 19.0589L5.60266 18.0892C5.96247 17.9728 6.34886 17.9668 6.7121 18.072C7.94427 18.4936 9.25424 18.6383 10.5487 18.4959C11.7733 18.3726 12.9611 18.0066 14.0428 17.4194C15.1245 16.8322 16.0785 16.0354 16.849 15.0757C17.6196 14.1159 18.1913 13.0124 18.5309 11.8293C18.8705 10.6463 18.9711 9.40747 18.8269 8.18514C18.6827 6.96281 18.2966 5.78142 17.691 4.70988C17.0855 3.63834 16.2726 2.6981 15.2999 1.944C14.3272 1.1899 13.214 0.637026 12.0254 0.317633C10.8367 -0.00175984 9.59639 -0.0812816 8.37669 0.0837061ZM5.04879 4.92612C5.50257 4.49849 6.10256 4.26034 6.72609 4.26034C7.34962 4.26034 7.94961 4.49849 8.4034 4.92612C8.84805 5.3734 9.09764 5.97846 9.09764 6.60915C9.09764 7.23985 8.84805 7.84491 8.4034 8.29218C7.95608 8.73243 7.35276 8.97782 6.72514 8.97479C6.09753 8.97175 5.49661 8.72054 5.05357 8.27599C4.61053 7.83144 4.36137 7.22966 4.36047 6.60204C4.35957 5.97442 4.60702 5.37194 5.04879 4.92612ZM5.88945 14.1063C5.76928 14.2262 5.60645 14.2935 5.43669 14.2935C5.26692 14.2935 5.10409 14.2262 4.98392 14.1063C4.92434 14.0468 4.87708 13.9761 4.84483 13.8984C4.81258 13.8206 4.79598 13.7373 4.79598 13.6531C4.79598 13.5689 4.81258 13.4855 4.84483 13.4078C4.87708 13.33 4.92434 13.2594 4.98392 13.1999L13.3238 4.85957C13.4435 4.73989 13.6056 4.67243 13.7749 4.67192C13.9441 4.6714 14.1066 4.73787 14.227 4.85681L14.2315 4.86105C14.2916 4.92044 14.3393 4.99113 14.372 5.06905C14.4047 5.14697 14.4217 5.23059 14.4219 5.31509C14.4221 5.39959 14.4057 5.4833 14.3734 5.5614C14.3412 5.6395 14.2938 5.71046 14.234 5.77018L5.88945 14.1063ZM14.1717 14.0577C13.8392 14.3892 13.416 14.6148 12.9554 14.7059C12.4948 14.797 12.0176 14.7496 11.5839 14.5696C11.1503 14.3896 10.7797 14.0852 10.519 13.6947C10.2583 13.3042 10.1191 12.8453 10.1191 12.3758C10.1191 11.9062 10.2583 11.4473 10.519 11.0568C10.7797 10.6663 11.1503 10.3619 11.5839 10.1819C12.0176 10.0019 12.4948 9.95448 12.9554 10.0456C13.416 10.1367 13.8392 10.3623 14.1717 10.6938C14.3931 10.9144 14.5688 11.1765 14.6887 11.4651C14.8086 11.7537 14.8703 12.0632 14.8703 12.3758C14.8703 12.6883 14.8086 12.9978 14.6887 13.2864C14.5688 13.575 14.3931 13.8372 14.1717 14.0577Z" fill="white"/>
</svg>
