<svg width="20" height="16" viewBox="0 0 20 16" fill="none" xmlns="http://www.w3.org/2000/svg">
<path d="M9.69566 4.28401L3.33816 9.52014V15.1714C3.33816 15.3178 3.39629 15.4581 3.49975 15.5616C3.60322 15.665 3.74355 15.7232 3.88988 15.7232L7.75396 15.7132C7.8998 15.7124 8.03943 15.654 8.1423 15.5506C8.24517 15.4472 8.30292 15.3073 8.30292 15.1614V11.8611C8.30292 11.7148 8.36104 11.5745 8.46451 11.471C8.56798 11.3676 8.70831 11.3094 8.85463 11.3094H11.0615C11.2078 11.3094 11.3482 11.3676 11.4516 11.471C11.5551 11.5745 11.6132 11.7148 11.6132 11.8611V15.159C11.613 15.2316 11.6271 15.3036 11.6547 15.3707C11.6823 15.4378 11.7229 15.4989 11.7742 15.5503C11.8255 15.6017 11.8863 15.6425 11.9534 15.6703C12.0204 15.6981 12.0923 15.7125 12.1649 15.7125L16.0276 15.7232C16.174 15.7232 16.3143 15.665 16.4178 15.5616C16.5212 15.4581 16.5794 15.3178 16.5794 15.1714V9.51635L10.2232 4.28401C10.1485 4.22378 10.0554 4.19093 9.95944 4.19093C9.86347 4.19093 9.77038 4.22378 9.69566 4.28401V4.28401ZM19.7379 7.84293L16.8552 5.46675V0.690612C16.8552 0.580869 16.8116 0.475621 16.734 0.398021C16.6564 0.32042 16.5512 0.276825 16.4414 0.276825H14.5104C14.4007 0.276825 14.2954 0.32042 14.2178 0.398021C14.1402 0.475621 14.0966 0.580869 14.0966 0.690612V3.19437L11.0094 0.654406C10.7132 0.410609 10.3414 0.277312 9.95772 0.277312C9.57404 0.277312 9.20228 0.410609 8.90601 0.654406L0.177514 7.84293C0.135613 7.87756 0.100948 7.92011 0.0754968 7.96814C0.0500461 8.01617 0.0343094 8.06875 0.0291858 8.12287C0.0240623 8.17699 0.0296522 8.23158 0.0456363 8.28354C0.0616204 8.3355 0.0876854 8.3838 0.122342 8.42568L1.00164 9.49463C1.0362 9.53665 1.07871 9.57145 1.12674 9.59702C1.17477 9.6226 1.22737 9.63845 1.28153 9.64367C1.33569 9.64889 1.39035 9.64338 1.44238 9.62745C1.49441 9.61152 1.54278 9.58548 1.58474 9.55083L9.69566 2.87024C9.77038 2.81001 9.86347 2.77716 9.95944 2.77716C10.0554 2.77716 10.1485 2.81001 10.2232 2.87024L18.3345 9.55083C18.3764 9.58549 18.4247 9.61155 18.4766 9.62754C18.5286 9.64352 18.5832 9.64911 18.6373 9.64399C18.6914 9.63887 18.744 9.62313 18.792 9.59768C18.8401 9.57223 18.8826 9.53756 18.9173 9.49566L19.7965 8.42671C19.8312 8.38459 19.8571 8.33604 19.8729 8.28386C19.8887 8.23167 19.894 8.17688 19.8886 8.12263C19.8831 8.06838 19.867 8.01574 19.8412 7.96774C19.8153 7.91974 19.7802 7.87732 19.7379 7.84293V7.84293Z" fill="white"/>
</svg>
