<svg width="16" height="20" viewBox="0 0 16 20" fill="none" xmlns="http://www.w3.org/2000/svg">
<path d="M8.20634 0C6.16845 0 4.21402 0.809549 2.77302 2.25056C1.33201 3.69156 0.522461 5.64599 0.522461 7.68388C0.522461 12.8705 7.29388 18.7294 7.58202 18.9792C7.756 19.128 7.9774 19.2098 8.20634 19.2098C8.43527 19.2098 8.65668 19.128 8.83065 18.9792C9.16682 18.7294 15.8902 12.8705 15.8902 7.68388C15.8902 5.64599 15.0807 3.69156 13.6397 2.25056C12.1987 0.809549 10.2442 0 8.20634 0ZM8.20634 16.9526C6.1605 15.0316 2.44343 10.8919 2.44343 7.68388C2.44343 6.15546 3.05059 4.68964 4.13135 3.60889C5.2121 2.52813 6.67792 1.92097 8.20634 1.92097C9.73475 1.92097 11.2006 2.52813 12.2813 3.60889C13.3621 4.68964 13.9692 6.15546 13.9692 7.68388C13.9692 10.8919 10.2522 15.0412 8.20634 16.9526ZM8.20634 3.84194C7.44647 3.84194 6.70367 4.06726 6.07187 4.48942C5.44007 4.91158 4.94764 5.51161 4.65685 6.21363C4.36606 6.91565 4.28998 7.68814 4.43822 8.4334C4.58646 9.17866 4.95237 9.86323 5.48968 10.4005C6.02698 10.9378 6.71155 11.3038 7.45681 11.452C8.20207 11.6002 8.97456 11.5242 9.67658 11.2334C10.3786 10.9426 10.9786 10.4501 11.4008 9.81834C11.8229 9.18654 12.0483 8.44374 12.0483 7.68388C12.0483 6.66493 11.6435 5.68772 10.923 4.96722C10.2025 4.24671 9.22528 3.84194 8.20634 3.84194ZM8.20634 9.60484C7.8264 9.60484 7.455 9.49218 7.1391 9.2811C6.8232 9.07002 6.57699 8.77001 6.43159 8.419C6.2862 8.06799 6.24816 7.68174 6.32228 7.30911C6.3964 6.93648 6.57935 6.5942 6.84801 6.32555C7.11666 6.05689 7.45894 5.87394 7.83157 5.79982C8.20421 5.7257 8.59045 5.76374 8.94146 5.90913C9.29247 6.05452 9.59248 6.30074 9.80356 6.61664C10.0146 6.93254 10.1273 7.30394 10.1273 7.68388C10.1273 8.19335 9.92492 8.68195 9.56467 9.0422C9.20441 9.40246 8.71581 9.60484 8.20634 9.60484Z" fill="white"/>
</svg>
