<svg width="26" height="17" viewBox="0 0 26 17" fill="none" xmlns="http://www.w3.org/2000/svg">
<path d="M23.975 0.0404053H1.84152C0.985876 0.0404053 0.292236 0.734045 0.292236 1.58969V14.6226C0.292236 15.4783 0.985876 16.1719 1.84152 16.1719H23.975C24.8307 16.1719 25.5243 15.4783 25.5243 14.6226V1.58969C25.5243 0.734045 24.8307 0.0404053 23.975 0.0404053Z" fill="url(#paint0_linear_45_1164)"/>
<path fill-rule="evenodd" clip-rule="evenodd" d="M7.02167 7.95242L7.13403 7.50892C7.5657 7.37883 8.44678 7.31969 8.61235 7.78684C8.70697 8.05886 8.43495 9.1883 8.38173 9.51944L7.96189 9.52536C7.86728 9.40709 7.94415 9.62588 7.8791 9.33613C7.477 9.69684 6.61957 9.63771 6.68461 8.91037C6.74966 8.18895 7.37647 8.28356 8.0565 8.17712C8.04468 7.71588 7.46517 7.84006 7.01576 7.9465L7.02167 7.95242ZM10.1853 7.88146C9.80093 7.88146 9.7418 7.79867 9.40474 7.9465C9.44613 8.36635 9.66492 8.20078 9.9665 8.40183C10.5401 8.78028 9.92511 9.95112 8.55913 9.44848L8.63601 9.02273C9.02037 9.0996 9.21551 9.17647 9.51118 9.0109C9.58214 8.41365 8.52365 8.80393 8.81932 7.84598C8.97898 7.32561 9.68266 7.39657 10.2622 7.44978L10.1794 7.88146H10.1853ZM4.29564 6.97672L5.20037 7.00629L5.29499 8.42548L5.78579 7.29013C5.95136 6.88211 5.83901 6.97081 6.87975 6.98263L6.4126 9.51944L5.90406 9.51353L6.18198 7.69223L5.43099 9.52536L4.82192 9.50762C4.80418 9.15282 4.77462 7.90511 4.68 7.66858L4.37251 9.51353L3.84031 9.50762L4.29564 6.97672ZM12.9232 12.3637L13.1715 12.0681C12.6748 12.003 12.5861 12.145 12.3614 11.7428L13.5027 11.731C13.5736 11.6128 13.6919 11.5004 13.751 11.3644C12.4501 11.2757 12.0835 11.6068 11.8765 11.0392H13.9639L14.1945 10.6785L11.6163 10.6666L11.498 10.365L14.2773 10.3532C14.437 10.2645 14.437 10.164 14.4784 9.98068L11.8469 9.97477C11.3739 9.98068 11.3443 10.0871 11.2556 9.65545H14.5671L14.6735 9.28882L13.7037 9.277L13.6564 9.52536L13.1006 9.5017L13.4494 7.43796L13.9757 7.50892C13.9757 7.52074 13.9876 7.56214 13.9876 7.57988C13.9876 7.5917 13.9935 7.60944 13.9935 7.61536L14.023 7.7218C14.1709 7.5444 14.2655 7.41431 14.6085 7.42613L14.4311 7.90511C14.3305 8.0352 14.0349 7.88737 13.9107 8.24217L14.4902 8.26582C14.5552 7.89328 14.6262 7.78093 14.7326 7.47935L14.7385 7.30195L11.1137 7.30787L11.1019 7.43796C11.297 7.43796 11.2911 7.40248 11.4034 7.49709L11.3502 7.84598C10.9836 7.93468 10.9954 7.71588 10.9599 8.19486C11.0132 8.28356 10.9481 8.23626 11.0605 8.26582L11.2911 8.27174C11.6636 7.05951 12.7753 7.32561 13.0296 7.70406C13.1656 7.90511 13.3016 8.5674 12.9645 8.62062L11.8351 8.63245C11.8883 9.22969 12.5743 9.10551 13.0178 8.95768C13 9.20604 13.0178 9.40709 12.7872 9.48988C12.6038 9.55492 12.2195 9.53718 12.0184 9.48988C11.5217 9.37752 11.3088 9.12917 11.2733 8.59105L11.0605 8.58514C10.8653 8.49644 11.0191 8.58514 10.9185 8.34269C10.8358 8.83941 10.6111 9.15873 11.226 9.08777C11.1906 9.38344 11.2319 9.48396 10.9067 9.51944C9.96059 9.6318 10.2681 8.99907 10.4218 8.15347C10.6643 6.80523 10.475 6.97081 11.161 6.98263L14.6853 6.98855L14.6144 6.62192L11.2083 6.61009L11.2733 6.31443L14.4961 6.29669C14.4133 5.79406 14.3956 5.91824 13.2247 5.91824H11.4389C11.5631 5.48657 11.498 5.60483 12.6571 5.60483H14.2241L14.0585 5.23229L11.7878 5.22638L11.9415 4.91889L13.8397 4.90706C13.5973 4.41034 13.6091 4.55226 12.2668 4.52861C12.4383 4.10285 12.7398 4.20929 13.2661 4.20929C13.1183 3.97276 13.0119 3.9905 12.9232 3.78945C12.7044 3.67709 12.5092 3.47604 12.2904 3.32229C10.617 2.13963 8.34625 2.01545 6.52496 2.90245C4.88697 3.69483 3.27855 5.52796 3.29629 8.06477C3.31994 11.6896 6.5013 14.3329 10.1025 13.7179C11.7937 13.4281 12.2195 12.7422 12.9172 12.3578L12.9232 12.3637Z" fill="#E41D2C"/>
<path fill-rule="evenodd" clip-rule="evenodd" d="M16.7846 7.49117C18.6177 7.11863 18.3161 8.02337 18.1683 8.75662C18.121 8.97541 18.121 9.40708 17.9495 9.52535C17.9081 9.52535 17.6657 9.53126 17.642 9.51943C17.4764 9.45439 17.5533 9.64953 17.5297 9.34795C17.0329 9.63179 16.2465 9.69683 16.3411 8.90445C16.418 8.27173 17.0566 8.1712 17.7071 8.20077C17.6834 7.73362 17.2576 7.81049 16.6663 7.95832L16.7905 7.49117H16.7846ZM18.5941 7.43795L19.0849 7.44386C19.0908 7.45569 19.0967 7.47343 19.0967 7.48526L19.1736 7.70405C19.2623 7.56804 19.4278 7.44978 19.688 7.44386L19.6171 7.86371L19.3746 7.95832C18.8897 8.11798 18.9193 8.72705 18.7892 9.52535H18.2393L18.5941 7.43795ZM21.2018 6.98854H21.7045L21.2728 9.53126C20.711 9.53717 20.847 9.56674 20.6696 9.35386C20.303 9.89789 19.2031 9.39526 19.5402 8.27173C19.7885 7.43204 20.6282 7.20733 21.0422 7.70405L21.2077 6.98262L21.2018 6.98854ZM12.9291 3.79535C13.0178 3.9964 13.1302 3.97866 13.2721 4.2152C12.7458 4.2152 12.4442 4.10284 12.2727 4.53451C13.615 4.55817 13.6032 4.41625 13.8457 4.91297L11.9475 4.92479L11.7937 5.23229L14.0645 5.2382L14.23 5.61074H12.663C11.5099 5.61074 11.569 5.49838 11.4449 5.92414H13.2307C14.4015 5.92414 14.4193 5.79996 14.502 6.30259L11.2793 6.32033L11.2142 6.616L14.6203 6.62783L14.6913 6.99445L11.1669 6.98854L11.1196 7.31968L14.7445 7.31377L14.7386 7.49117C15.0106 7.23098 14.9633 7.09498 15.4718 6.94715C15.8917 6.82888 16.1578 6.91758 16.5717 7.00628L16.483 7.5503C15.7734 7.33742 15.3122 7.39064 15.1466 8.12389C14.9633 8.91036 15.5842 9.20603 16.2406 8.89262C16.1814 9.46622 16.0868 9.60813 15.4127 9.51943C14.9455 9.4603 14.8036 9.2356 14.5967 8.95767H13.7511L13.7037 9.2829L14.6735 9.29473L14.5671 9.66135H11.2556C11.3443 10.093 11.3739 9.98659 11.847 9.98067L14.4784 9.98659C14.4311 10.164 14.437 10.2704 14.2773 10.3591L11.4981 10.371L11.6163 10.6725L14.1945 10.6844L13.9639 11.0451H11.8765C12.0835 11.6068 12.4501 11.2816 13.7511 11.3703C13.6919 11.5063 13.5737 11.6187 13.5027 11.7369L12.3614 11.7488C12.5802 12.1449 12.6748 12.0089 13.1715 12.074L12.9232 12.3697C13.7688 12.9905 14.4252 13.5109 15.7911 13.7475C17.0329 13.9603 18.328 13.7238 19.3273 13.233C23.6558 11.0983 23.5376 4.94845 19.2918 2.91427C17.7662 2.18693 15.7438 2.12188 14.165 2.94975C13.4022 3.34594 13.2189 3.62978 12.935 3.80126L12.9291 3.79535Z" fill="#F8B02B"/>
<path fill-rule="evenodd" clip-rule="evenodd" d="M3.84009 9.51353L4.37229 9.51944L4.67978 7.67449C4.77439 7.91102 4.80396 9.15873 4.8217 9.51353L5.43077 9.53127L6.18176 7.69814L5.90383 9.51944L6.41238 9.52536L6.87953 6.98855C5.83879 6.97672 5.95114 6.88802 5.78557 7.29604L5.29476 8.43139L5.20015 7.0122L4.29541 6.98263L3.84009 9.51353Z" fill="#FEFEFE"/>
<path fill-rule="evenodd" clip-rule="evenodd" d="M20.3146 9.04637C19.8711 8.59105 20.2496 7.83414 20.6635 7.93467C21.0715 8.0352 20.9947 9.03455 20.3146 9.04637ZM21.0361 7.70405C20.6221 7.20733 19.7883 7.43204 19.5341 8.27173C19.197 9.38934 20.2969 9.89789 20.6635 9.35386C20.8409 9.56674 20.7049 9.53126 21.2667 9.53126L21.6983 6.98854H21.1957L21.0301 7.70996L21.0361 7.70405Z" fill="#FEFEFE"/>
<path fill-rule="evenodd" clip-rule="evenodd" d="M16.9738 9.05229C16.891 8.6561 17.2576 8.50236 17.6065 8.57332C17.6242 8.97542 17.3404 9.19421 16.9738 9.05229ZM16.7845 7.49709L16.6604 7.96424C17.2517 7.82232 17.6834 7.74545 17.7011 8.20669C17.0506 8.17712 16.412 8.27765 16.3351 8.91037C16.2346 9.70276 17.027 9.63771 17.5237 9.35387C17.5474 9.65545 17.4705 9.46031 17.6361 9.52536C17.6597 9.53718 17.9022 9.53127 17.9435 9.53127C18.1209 9.41892 18.1209 8.98133 18.1623 8.76254C18.3161 8.02338 18.6118 7.12455 16.7786 7.49709H16.7845Z" fill="#FEFEFE"/>
<path fill-rule="evenodd" clip-rule="evenodd" d="M7.96179 8.55557C7.97362 8.75662 7.93814 8.91037 7.80804 9.01089C7.71934 9.07594 7.45324 9.15281 7.3468 9.05228C7.01566 8.75071 7.63656 8.54965 7.95588 8.55557H7.96179ZM7.02157 7.95241C7.47098 7.84597 8.05049 7.72179 8.06232 8.18303C7.38228 8.28947 6.75547 8.19485 6.69043 8.91628C6.61947 9.64362 7.4769 9.70275 7.88492 9.34204C7.94996 9.63179 7.87309 9.413 7.9677 9.53126L8.38755 9.52535C8.44077 9.18829 8.71278 8.06476 8.61817 7.79275C8.45259 7.31968 7.57742 7.37882 7.13984 7.51482L7.02749 7.95832L7.02157 7.95241Z" fill="#FEFEFE"/>
<path fill-rule="evenodd" clip-rule="evenodd" d="M11.9237 8.24808C12.0005 7.9465 12.1306 7.82232 12.4795 7.86963C12.6037 8.04703 12.6037 7.99381 12.6273 8.24808H11.9237ZM11.2968 8.27764L11.2732 8.59696C11.3087 9.13507 11.5275 9.37752 12.0183 9.49579C12.2193 9.54309 12.6037 9.56083 12.787 9.49579C13.0176 9.41891 12.9999 9.21195 13.0176 8.96359C12.5741 9.11142 11.8882 9.2356 11.835 8.63836L12.9644 8.62653C13.3015 8.57331 13.1655 7.91693 13.0294 7.70997C12.7752 7.33151 11.6635 7.06542 11.2909 8.27764H11.2968Z" fill="#FEFEFE"/>
<path fill-rule="evenodd" clip-rule="evenodd" d="M14.7385 7.49118C14.6321 7.79276 14.5611 7.90511 14.4961 8.27765V8.60288L14.5966 8.96359C14.8036 9.24152 14.9455 9.46622 15.4127 9.52536C16.0868 9.61406 16.1814 9.47214 16.2405 8.89854C15.5782 9.21195 14.9632 8.91628 15.1466 8.12981C15.318 7.39065 15.7793 7.34334 16.483 7.55622L16.5717 7.0122C16.1577 6.92941 15.8916 6.84071 15.4718 6.95307C14.9632 7.09499 15.0106 7.2369 14.7385 7.49709V7.49118Z" fill="#FEFEFE"/>
<path fill-rule="evenodd" clip-rule="evenodd" d="M10.2621 7.44978C9.68261 7.40247 8.97893 7.3256 8.81927 7.84597C8.5236 8.80393 9.57617 8.41365 9.51112 9.01089C9.20955 9.17646 9.02032 9.09959 8.63596 9.02272L8.55908 9.44848C9.92506 9.95111 10.5341 8.78619 9.96645 8.40182C9.66487 8.20077 9.44608 8.37225 9.40469 7.9465C9.74174 7.79275 9.79496 7.88145 10.1852 7.88145L10.268 7.44978H10.2621Z" fill="#FEFEFE"/>
<path fill-rule="evenodd" clip-rule="evenodd" d="M10.9244 8.34861L10.9658 8.20669C11.0013 7.72771 10.9894 7.9465 11.3561 7.8578L11.4093 7.50892C11.2969 7.4143 11.3028 7.44978 11.1077 7.44978L11.1195 7.31969L11.1668 6.98854C10.4809 6.97672 10.6701 6.81115 10.4277 8.15938C10.2739 9.00498 9.96643 9.63771 10.9126 9.52535C11.2319 9.48987 11.1964 9.38935 11.2319 9.09368C10.6228 9.16464 10.8475 8.84532 10.9244 8.34861Z" fill="#FEFEFE"/>
<path fill-rule="evenodd" clip-rule="evenodd" d="M13.7037 9.28882L13.751 8.96359L13.8101 8.60879L13.9166 8.25399C14.0467 7.89919 14.3423 8.04703 14.4369 7.91693L14.6143 7.43796C14.2655 7.42613 14.1708 7.55622 14.0289 7.73362L13.9994 7.62718C13.9994 7.62127 13.9934 7.60353 13.9934 7.5917C13.9934 7.57988 13.9816 7.53257 13.9816 7.52074L13.4553 7.44978L13.1064 9.51353L13.6623 9.53718L13.7096 9.28882H13.7037Z" fill="#FEFEFE"/>
<path fill-rule="evenodd" clip-rule="evenodd" d="M18.239 9.52536H18.789C18.919 8.72706 18.8895 8.11799 19.3744 7.95833L19.6168 7.86372L19.6878 7.44387C19.4276 7.44978 19.262 7.56805 19.1733 7.70406L19.0964 7.48526C19.0905 7.47344 19.0905 7.4557 19.0846 7.44387L18.5938 7.43796L18.239 9.52536Z" fill="#FEFEFE"/>
<path fill-rule="evenodd" clip-rule="evenodd" d="M20.3148 9.04637C21.0007 9.03455 21.0776 8.0352 20.6636 7.93467C20.2438 7.83414 19.8713 8.59105 20.3148 9.04637Z" fill="#F8B02B"/>
<path fill-rule="evenodd" clip-rule="evenodd" d="M7.96184 8.55558C7.64252 8.54966 7.02163 8.75072 7.35277 9.0523C7.45921 9.14691 7.72531 9.07004 7.81401 9.0109C7.9441 8.91629 7.97367 8.75663 7.96776 8.55558H7.96184Z" fill="#E41D2C"/>
<path fill-rule="evenodd" clip-rule="evenodd" d="M13.751 8.95767L14.5966 8.96359L14.4961 8.60287H13.8101L13.751 8.95767Z" fill="#E41D2C"/>
<path fill-rule="evenodd" clip-rule="evenodd" d="M16.9737 9.05229C17.3462 9.1883 17.6241 8.97542 17.6064 8.57331C17.2516 8.50827 16.8909 8.66201 16.9737 9.05229Z" fill="#F8B02B"/>
<path fill-rule="evenodd" clip-rule="evenodd" d="M13.8101 8.60288H14.496V8.27764L13.9165 8.24808L13.8101 8.60288Z" fill="#F8B02B"/>
<path fill-rule="evenodd" clip-rule="evenodd" d="M11.9238 8.24809H12.6275C12.6098 7.99973 12.6039 8.04703 12.4797 7.86964C12.1308 7.82233 12.0007 7.94651 11.9238 8.24809Z" fill="#E41D2C"/>
<path fill-rule="evenodd" clip-rule="evenodd" d="M10.9243 8.34861C11.0248 8.59105 10.8711 8.50235 11.0662 8.59105L11.2791 8.59697L11.3028 8.27765L11.0721 8.27173C10.9539 8.24808 11.0189 8.28947 10.9716 8.20078L10.9302 8.34269L10.9243 8.34861Z" fill="#F8B02B"/>
<defs>
<linearGradient id="paint0_linear_45_1164" x1="12.908" y1="0.0426523" x2="12.908" y2="16.1754" gradientUnits="userSpaceOnUse">
<stop stop-color="#1D4C80"/>
<stop offset="1" stop-color="#173A63"/>
</linearGradient>
</defs>
</svg>
