<svg xmlns="http://www.w3.org/2000/svg" viewBox="0 0 64 64"><path d="M33.5 41H33v3h.5a1.5 1.5 0 0 0 0-3zM30.5 36a1.5 1.5 0 0 0 0 3h.5v-3z" style="fill:#232328"/><circle cx="20" cy="13" r="1" style="fill:#232328"/><circle cx="6" cy="13" r="1" style="fill:#232328"/><circle cx="13" cy="13" r="1" style="fill:#232328"/><path d="M21 19a5.006 5.006 0 0 0 5-5 1 1 0 0 1 1-1h37v-3a5.006 5.006 0 0 0-5-5H5a5.006 5.006 0 0 0-5 5v9zm7-11h31a1 1 0 0 1 0 2H28a1 1 0 0 1 0-2zm-8 2a3 3 0 1 1-3 3 3 3 0 0 1 3-3zm-7 0a3 3 0 1 1-3 3 3 3 0 0 1 3-3zm-7 0a3 3 0 1 1-3 3 3 3 0 0 1 3-3z" style="fill:#232328"/><path d="M27.929 15A7.011 7.011 0 0 1 21 21H0v33a5.006 5.006 0 0 0 5 5h54a5.006 5.006 0 0 0 5-5V15zM13.707 43.293a1 1 0 0 1-1.414 1.414l-4-4a1 1 0 0 1 0-1.414l4-4a1 1 0 0 1 1.414 1.414L10.414 40zM32 52a12 12 0 1 1 12-12 12.013 12.013 0 0 1-12 12zm23.707-11.293-4 4a1 1 0 0 1-1.414-1.414L53.586 40l-3.293-3.293a1 1 0 0 1 1.414-1.414l4 4a1 1 0 0 1 0 1.414z" style="fill:#232328"/><path d="M32 30a10 10 0 1 0 10 10 10.011 10.011 0 0 0-10-10zm1.5 16H33v1a1 1 0 0 1-2 0v-1h-2a1 1 0 0 1 0-2h2v-3h-.5a3.5 3.5 0 0 1 0-7h.5v-1a1 1 0 0 1 2 0v1h2a1 1 0 0 1 0 2h-2v3h.5a3.5 3.5 0 0 1 0 7z" style="fill:#232328"/></svg>