<svg width="20" height="21" viewBox="0 0 20 21" fill="none" xmlns="http://www.w3.org/2000/svg">
<path d="M10.9013 0.0809948C11.4638 0.0707676 11.9967 0.27429 12.3945 0.663948C12.7944 1.04133 13.0081 1.56395 13.0081 2.11622C13.0081 3.24122 13.9388 4.15247 15.0955 4.15247C15.4525 4.15247 15.8104 4.04917 16.1285 3.87531C17.1195 3.34247 18.357 3.68099 18.9195 4.63212L19.616 5.82871C19.7898 6.13553 19.8911 6.48326 19.8911 6.84121C19.8911 7.56735 19.4932 8.24337 18.8489 8.6003C18.5309 8.77416 18.265 9.04007 18.0819 9.34791C17.5388 10.3083 17.8773 11.5243 18.8489 12.0786C19.8297 12.6401 20.1672 13.8684 19.616 14.8389L18.9195 15.9956C18.5513 16.6287 17.8661 17.0184 17.1297 17.0184C16.7616 17.0184 16.3934 16.9253 16.0876 16.7412C15.7593 16.5673 15.4023 16.4651 15.0434 16.4651C14.4911 16.4651 13.9593 16.6809 13.5717 17.0685C13.1718 17.4479 12.957 17.9685 12.957 18.5105C12.957 19.6253 12.0274 20.5355 10.8707 20.5355H9.47054C8.91724 20.5355 8.39565 20.3105 8.01724 19.9321C7.62861 19.5435 7.42509 19.0321 7.42509 18.5003C7.42509 17.3753 6.50361 16.4651 5.34895 16.4651C4.96952 16.4651 4.60134 16.5673 4.2843 16.7627C3.80361 17.0276 3.23089 17.0992 2.69907 16.9662C2.16725 16.823 1.70703 16.4753 1.43089 16.0151L0.777368 14.8594C0.469528 14.3797 0.377483 13.806 0.521687 13.2639C0.663846 12.7219 1.03305 12.2617 1.53316 11.9855C1.85123 11.8117 2.11612 11.556 2.30021 11.2389C2.83305 10.2776 2.49453 9.07075 1.53316 8.50826C0.561573 7.95598 0.224074 6.73894 0.777368 5.77758L1.43089 4.63212C1.70703 4.15247 2.16725 3.80372 2.7093 3.66053C3.25236 3.51735 3.82407 3.59815 4.30475 3.87531C4.63202 4.04917 4.98998 4.14122 5.34895 4.14122C5.90122 4.14122 6.43202 3.92644 6.82066 3.54803C7.20929 3.16963 7.42509 2.64804 7.42509 2.11622C7.42509 0.991221 8.35474 0.0809948 9.51042 0.0809948H10.9013ZM11.3114 7.73201C10.2376 7.29121 8.99906 7.52644 8.17065 8.33439C7.35247 9.13212 7.09679 10.3492 7.54679 11.3934C7.98759 12.4457 9.02974 13.131 10.1957 13.131H10.2069C10.9739 13.1412 11.6899 12.8456 12.2309 12.3128C12.7729 11.7912 13.0797 11.0753 13.0797 10.3287C13.09 9.19348 12.3843 8.16053 11.3114 7.73201Z" fill="white"/>
</svg>
